<svg width="15" height="16" viewBox="0 0 15 16" fill="none" xmlns="http://www.w3.org/2000/svg">
<path d="M6.20511 8.66659C6.55206 8.66659 6.83331 8.36811 6.83331 7.99992C6.83331 7.63173 6.55206 7.33325 6.20511 7.33325C5.85816 7.33325 5.5769 7.63173 5.5769 7.99992C5.5769 8.36811 5.85816 8.66659 6.20511 8.66659Z" stroke="white" stroke-linecap="square"/>
<path d="M4.9488 12L1.17957 8L4.9488 4H12.4873C12.8205 4 13.1401 4.14048 13.3757 4.39052C13.6113 4.64057 13.7437 4.97971 13.7437 5.33333V10.6667C13.7437 11.0203 13.6113 11.3594 13.3757 11.6095C13.1401 11.8595 12.8205 12 12.4873 12H4.9488Z" stroke="white" stroke-linecap="square"/>
</svg>
