<svg xmlns="http://www.w3.org/2000/svg" version="1.1" xmlns:xlink="http://www.w3.org/1999/xlink" xmlns:svgjs="http://svgjs.dev/svgjs" width="1000" height="1000"><g clip-path="url(#SvgjsClipPath1016)"><rect width="1000" height="1000" fill="#ffffff"></rect><g transform="matrix(13.461538461538462,0,0,13.461538461538462,150,150)"><svg xmlns="http://www.w3.org/2000/svg" version="1.1" xmlns:xlink="http://www.w3.org/1999/xlink" xmlns:svgjs="http://svgjs.dev/svgjs" width="52" height="52"><svg width="52" height="52" viewBox="0 0 52 52" fill="none" xmlns="http://www.w3.org/2000/svg">
<path d="M12.2446 28.3687C12.2446 20.0744 17.6204 13.9438 25.6243 13.9438C31.9557 13.9438 37.0926 17.7905 37.0926 21.6371C37.0926 23.2599 36.0174 24.3418 34.2255 24.3418C29.8652 24.3418 30.0444 16.4081 24.3102 16.4081C21.0848 16.4081 18.158 19.5936 18.158 24.7024C18.158 32.7563 22.8767 38.0454 27.7746 38.0454C31.8363 38.0454 34.1658 35.1003 35.4201 32.9366C36.0772 32.0951 37.5107 32.3356 37.3315 33.5977C36.9134 38.7065 33.2101 43.5148 25.9827 43.5148C18.3372 43.5148 12.2446 36.1822 12.2446 28.3687Z" fill="#198C36"></path>
<path d="M6.33156 25.6642C6.3913 25.7243 6.33156 25.8445 6.27183 25.9046C6.2121 25.9647 6.09264 25.9046 6.03291 25.8445C4.8383 24.1616 2.5088 20.0145 2.688 13.1026C2.688 11.059 3.10611 9.01551 3.88261 7.09219C4.53965 5.5295 6.33156 2.94504 8.36241 3.78649C10.3932 4.62794 7.58591 7.75333 6.9886 8.65488C3.52422 13.8839 4.36045 20.0746 6.33156 25.6642Z" fill="#FDBC4E"></path>
<path d="M7.46655 22.4789C7.46655 22.539 7.40682 22.539 7.34709 22.539C7.28736 22.539 7.28736 22.4789 7.28736 22.4789C7.04844 20.0146 6.92897 14.6053 9.19874 9.85709C10.2739 7.51305 11.9463 5.46953 14.0369 3.96694C14.8134 3.42601 15.7094 3.12549 16.6651 3.12549C17.8 3.2457 18.6959 4.26746 18.1583 5.40943C17.3221 7.15243 15.0523 7.39285 13.6188 8.47471C11.7672 9.8571 10.4531 11.9607 9.55712 14.0643C8.48197 16.7089 7.7652 19.5939 7.46655 22.4789Z" fill="#FDBC4E"></path>
<path d="M9.73633 21.2165C9.73633 20.7357 9.79606 20.2549 9.91552 19.8341C10.3934 18.1512 11.0504 16.5284 11.9464 15.0258C14.3356 10.9989 17.8 7.45278 22.3992 6.37092C23.773 6.0103 28.2528 6.0103 26.8193 8.65486C25.8636 10.3378 23.116 9.61651 21.563 9.91703C18.5765 10.5181 16.1872 12.3813 14.0967 14.4849C11.8269 16.8289 9.85579 21.2766 9.73633 21.2165Z" fill="#FDBC4E"></path>
</svg></svg></g></g><defs><clipPath id="SvgjsClipPath1016"><rect width="1000" height="1000" x="0" y="0" rx="350" ry="350"></rect></clipPath></defs></svg>